<svg width="40" height="40" viewBox="0 0 40 40" fill="none" xmlns="http://www.w3.org/2000/svg">
<path d="M36.6667 0H3.33333C2.44928 0 1.60143 0.351189 0.976311 0.976311C0.351189 1.60143 0 2.44928 0 3.33333V36.6667C0 37.5507 0.351189 38.3986 0.976311 39.0237C1.60143 39.6488 2.44928 40 3.33333 40H36.6667C37.5507 40 38.3986 39.6488 39.0237 39.0237C39.6488 38.3986 40 37.5507 40 36.6667V3.33333C40 2.44928 39.6488 1.60143 39.0237 0.976311C38.3986 0.351189 37.5507 0 36.6667 0ZM31.6667 21.6667H21.6667V31.6667C21.6667 32.1087 21.4911 32.5326 21.1785 32.8452C20.866 33.1577 20.442 33.3333 20 33.3333C19.558 33.3333 19.134 33.1577 18.8215 32.8452C18.5089 32.5326 18.3333 32.1087 18.3333 31.6667V21.6667H8.33333C7.89131 21.6667 7.46738 21.4911 7.15482 21.1785C6.84226 20.866 6.66667 20.442 6.66667 20C6.66667 19.558 6.84226 19.134 7.15482 18.8215C7.46738 18.5089 7.89131 18.3333 8.33333 18.3333H18.3333V8.33333C18.3333 7.89131 18.5089 7.46738 18.8215 7.15482C19.134 6.84226 19.558 6.66667 20 6.66667C20.442 6.66667 20.866 6.84226 21.1785 7.15482C21.4911 7.46738 21.6667 7.89131 21.6667 8.33333V18.3333H31.6667C32.1087 18.3333 32.5326 18.5089 32.8452 18.8215C33.1577 19.134 33.3333 19.558 33.3333 20C33.3333 20.442 33.1577 20.866 32.8452 21.1785C32.5326 21.4911 32.1087 21.6667 31.6667 21.6667Z" fill="black"/>
</svg>
