<svg width="18" height="18" viewBox="0 0 18 18" fill="none" xmlns="http://www.w3.org/2000/svg">
<path fill-rule="evenodd" clip-rule="evenodd" d="M0.43934 0.439523C1.02513 -0.146264 1.97487 -0.146264 2.56066 0.439523L9 6.87886L15.4393 0.439523C16.0251 -0.146264 16.9749 -0.146264 17.5607 0.439523C18.1464 1.02531 18.1464 1.97506 17.5607 2.56084L11.1213 9.00018L17.5607 15.4395C18.1464 16.0253 18.1464 16.9751 17.5607 17.5608C16.9749 18.1466 16.0251 18.1466 15.4393 17.5608L9 11.1215L2.56066 17.5608C1.97487 18.1466 1.02513 18.1466 0.43934 17.5608C-0.146447 16.9751 -0.146447 16.0253 0.43934 15.4395L6.87868 9.00018L0.43934 2.56084C-0.146447 1.97506 -0.146447 1.02531 0.43934 0.439523Z" fill="white" fill-opacity="0.8"/>
</svg>
