<svg width="42" height="42" viewBox="0 0 42 42" fill="none" xmlns="http://www.w3.org/2000/svg">
<path d="M25.5625 25.5625L8.50002 33.5L16.4375 16.4375L33.5 8.5M21 0.166664C18.2641 0.166664 15.5551 0.705534 13.0274 1.75251C10.4998 2.79948 8.20318 4.33405 6.26863 6.26861C2.36162 10.1756 0.166687 15.4747 0.166687 21C0.166687 26.5253 2.36162 31.8244 6.26863 35.7314C8.20318 37.6659 10.4998 39.2005 13.0274 40.2475C15.5551 41.2945 18.2641 41.8333 21 41.8333C26.5254 41.8333 31.8244 39.6384 35.7314 35.7314C39.6384 31.8244 41.8334 26.5253 41.8334 21C41.8334 18.2641 41.2945 15.555 40.2475 13.0274C39.2005 10.4998 37.666 8.20316 35.7314 6.26861C33.7969 4.33405 31.5002 2.79948 28.9726 1.75251C26.445 0.705534 23.7359 0.166664 21 0.166664ZM21 18.7083C20.3922 18.7083 19.8093 18.9498 19.3796 19.3795C18.9498 19.8093 18.7084 20.3922 18.7084 21C18.7084 21.6078 18.9498 22.1907 19.3796 22.6205C19.8093 23.0502 20.3922 23.2917 21 23.2917C21.6078 23.2917 22.1907 23.0502 22.6205 22.6205C23.0502 22.1907 23.2917 21.6078 23.2917 21C23.2917 20.3922 23.0502 19.8093 22.6205 19.3795C22.1907 18.9498 21.6078 18.7083 21 18.7083Z" fill="black"/>
</svg>
