<svg width="80" height="80" viewBox="0 0 80 80" fill="none" xmlns="http://www.w3.org/2000/svg">
<g filter="url(#filter0_d_213_1400)">
<circle cx="40" cy="36" r="30" fill="white" fill-opacity="0.7" shape-rendering="crispEdges"/>
</g>
<path d="M34.2308 32C34.5368 32 34.8303 32.1054 35.0466 32.2929C35.263 32.4804 35.3846 32.7348 35.3846 33V45C35.3846 45.2652 35.263 45.5196 35.0466 45.7071C34.8303 45.8946 34.5368 46 34.2308 46C33.9247 46 33.6312 45.8946 33.4149 45.7071C33.1985 45.5196 33.0769 45.2652 33.0769 45V33C33.0769 32.7348 33.1985 32.4804 33.4149 32.2929C33.6312 32.1054 33.9247 32 34.2308 32ZM40 32C40.306 32 40.5995 32.1054 40.8159 32.2929C41.0323 32.4804 41.1538 32.7348 41.1538 33V45C41.1538 45.2652 41.0323 45.5196 40.8159 45.7071C40.5995 45.8946 40.306 46 40 46C39.694 46 39.4005 45.8946 39.1841 45.7071C38.9677 45.5196 38.8461 45.2652 38.8461 45V33C38.8461 32.7348 38.9677 32.4804 39.1841 32.2929C39.4005 32.1054 39.694 32 40 32ZM46.9231 33C46.9231 32.7348 46.8015 32.4804 46.5851 32.2929C46.3687 32.1054 46.0752 32 45.7692 32C45.4632 32 45.1697 32.1054 44.9533 32.2929C44.7369 32.4804 44.6154 32.7348 44.6154 33V45C44.6154 45.2652 44.7369 45.5196 44.9533 45.7071C45.1697 45.8946 45.4632 46 45.7692 46C46.0752 46 46.3687 45.8946 46.5851 45.7071C46.8015 45.5196 46.9231 45.2652 46.9231 45V33Z" fill="black"/>
<path d="M55 27C55 27.5304 54.7569 28.0391 54.3241 28.4142C53.8913 28.7893 53.3043 29 52.6923 29H51.5385V47C51.5385 48.0609 51.0522 49.0783 50.1866 49.8284C49.3211 50.5786 48.1472 51 46.9231 51H33.0769C31.8528 51 30.6789 50.5786 29.8134 49.8284C28.9478 49.0783 28.4615 48.0609 28.4615 47V29H27.3077C26.6957 29 26.1087 28.7893 25.6759 28.4142C25.2431 28.0391 25 27.5304 25 27V25C25 24.4696 25.2431 23.9609 25.6759 23.5858C26.1087 23.2107 26.6957 23 27.3077 23H35.3846C35.3846 22.4696 35.6277 21.9609 36.0605 21.5858C36.4933 21.2107 37.0803 21 37.6923 21H42.3077C42.9197 21 43.5067 21.2107 43.9395 21.5858C44.3723 21.9609 44.6154 22.4696 44.6154 23H52.6923C53.3043 23 53.8913 23.2107 54.3241 23.5858C54.7569 23.9609 55 24.4696 55 25V27ZM31.0415 29L30.7692 29.118V47C30.7692 47.5304 31.0124 48.0391 31.4451 48.4142C31.8779 48.7893 32.4649 49 33.0769 49H46.9231C47.5351 49 48.1221 48.7893 48.5549 48.4142C48.9876 48.0391 49.2308 47.5304 49.2308 47V29.118L48.9585 29H31.0415ZM27.3077 27H52.6923V25H27.3077V27Z" fill="black"/>
<defs>
<filter id="filter0_d_213_1400" x="0" y="0" width="80" height="80" filterUnits="userSpaceOnUse" color-interpolation-filters="sRGB">
<feFlood flood-opacity="0" result="BackgroundImageFix"/>
<feColorMatrix in="SourceAlpha" type="matrix" values="0 0 0 0 0 0 0 0 0 0 0 0 0 0 0 0 0 0 127 0" result="hardAlpha"/>
<feOffset dy="4"/>
<feGaussianBlur stdDeviation="5"/>
<feComposite in2="hardAlpha" operator="out"/>
<feColorMatrix type="matrix" values="0 0 0 0 0 0 0 0 0 0 0 0 0 0 0 0 0 0 0.25 0"/>
<feBlend mode="normal" in2="BackgroundImageFix" result="effect1_dropShadow_213_1400"/>
<feBlend mode="normal" in="SourceGraphic" in2="effect1_dropShadow_213_1400" result="shape"/>
</filter>
</defs>
</svg>
