<svg width="88" height="88" viewBox="0 0 88 88" fill="none" xmlns="http://www.w3.org/2000/svg">
<g filter="url(#filter0_d_316_13)">
<circle cx="44" cy="40" r="40" fill="white"/>
</g>
<path d="M40 20C42.6522 20 45.1957 21.0536 47.0711 22.9289C48.9464 24.8043 50 27.3478 50 30C50 32.6522 48.9464 35.1957 47.0711 37.0711C45.1957 38.9464 42.6522 40 40 40C37.3478 40 34.8043 38.9464 32.9289 37.0711C31.0536 35.1957 30 32.6522 30 30C30 27.3478 31.0536 24.8043 32.9289 22.9289C34.8043 21.0536 37.3478 20 40 20ZM40 45C51.05 45 60 49.475 60 55V60H20V55C20 49.475 28.95 45 40 45Z" fill="black"/>
<path d="M72.5 43H71.71L71.43 42.73C72.4439 41.554 73.0011 40.0527 73 38.5C73 37.2144 72.6188 35.9577 71.9046 34.8888C71.1903 33.8199 70.1752 32.9868 68.9874 32.4948C67.7997 32.0028 66.4928 31.8741 65.2319 32.1249C63.971 32.3757 62.8129 32.9948 61.9038 33.9038C60.9948 34.8129 60.3757 35.971 60.1249 37.2319C59.8741 38.4928 60.0028 39.7997 60.4948 40.9874C60.9868 42.1752 61.8199 43.1903 62.8888 43.9046C63.9577 44.6188 65.2144 45 66.5 45C68.11 45 69.59 44.41 70.73 43.43L71 43.71V44.5L76 49.49L77.49 48L72.5 43ZM66.5 43C64.01 43 62 40.99 62 38.5C62 36.01 64.01 34 66.5 34C68.99 34 71 36.01 71 38.5C71 40.99 68.99 43 66.5 43Z" fill="black"/>
<defs>
<filter id="filter0_d_316_13" x="0" y="0" width="88" height="88" filterUnits="userSpaceOnUse" color-interpolation-filters="sRGB">
<feFlood flood-opacity="0" result="BackgroundImageFix"/>
<feColorMatrix in="SourceAlpha" type="matrix" values="0 0 0 0 0 0 0 0 0 0 0 0 0 0 0 0 0 0 127 0" result="hardAlpha"/>
<feOffset dy="4"/>
<feGaussianBlur stdDeviation="2"/>
<feComposite in2="hardAlpha" operator="out"/>
<feColorMatrix type="matrix" values="0 0 0 0 0 0 0 0 0 0 0 0 0 0 0 0 0 0 0.25 0"/>
<feBlend mode="normal" in2="BackgroundImageFix" result="effect1_dropShadow_316_13"/>
<feBlend mode="normal" in="SourceGraphic" in2="effect1_dropShadow_316_13" result="shape"/>
</filter>
</defs>
</svg>
