<svg width="34" height="36" viewBox="0 0 34 36" fill="none" xmlns="http://www.w3.org/2000/svg">
<path d="M17.0195 13.2578C15.8516 13.2578 14.7578 13.7109 13.9297 14.5391C13.1055 15.3672 12.6484 16.4609 12.6484 17.6289C12.6484 18.7969 13.1055 19.8906 13.9297 20.7188C14.7578 21.543 15.8516 22 17.0195 22C18.1875 22 19.2812 21.543 20.1094 20.7188C20.9336 19.8906 21.3906 18.7969 21.3906 17.6289C21.3906 16.4609 20.9336 15.3672 20.1094 14.5391C19.7049 14.1315 19.2235 13.8083 18.693 13.5884C18.1626 13.3684 17.5938 13.2561 17.0195 13.2578ZM33.125 22.457L30.5703 20.2734C30.6914 19.5312 30.7539 18.7734 30.7539 18.0195C30.7539 17.2656 30.6914 16.5039 30.5703 15.7656L33.125 13.582C33.318 13.4168 33.4561 13.1968 33.521 12.9512C33.5859 12.7056 33.5745 12.446 33.4883 12.207L33.4531 12.1055C32.75 10.1394 31.6966 8.31701 30.3438 6.72656L30.2734 6.64453C30.1092 6.45138 29.8902 6.31253 29.6455 6.24628C29.4007 6.18003 29.1416 6.1895 28.9023 6.27344L25.7305 7.40234C24.5586 6.44141 23.2539 5.68359 21.8398 5.15625L21.2266 1.83984C21.1803 1.59001 21.0591 1.36017 20.8791 1.18085C20.6991 1.00154 20.4688 0.881237 20.2188 0.835938L20.1133 0.816406C18.082 0.449219 15.9414 0.449219 13.9102 0.816406L13.8047 0.835938C13.5547 0.881237 13.3244 1.00154 13.1444 1.18085C12.9643 1.36017 12.8431 1.59001 12.7969 1.83984L12.1797 5.17188C10.779 5.70342 9.4742 6.4594 8.31641 7.41016L5.12109 6.27344C4.8819 6.18884 4.62262 6.17903 4.37771 6.24531C4.13281 6.3116 3.91387 6.45084 3.75 6.64453L3.67969 6.72656C2.32927 8.31871 1.27606 10.1407 0.570312 12.1055L0.535156 12.207C0.359375 12.6953 0.503906 13.2422 0.898437 13.582L3.48437 15.7891C3.36328 16.5234 3.30469 17.2734 3.30469 18.0156C3.30469 18.7656 3.36328 19.5156 3.48437 20.2422L0.90625 22.4492C0.713264 22.6144 0.575142 22.8345 0.51025 23.0801C0.445357 23.3257 0.456769 23.5852 0.542968 23.8242L0.578125 23.9258C1.28516 25.8906 2.32812 27.707 3.6875 29.3047L3.75781 29.3867C3.92209 29.5799 4.14103 29.7187 4.38579 29.785C4.63055 29.8512 4.88964 29.8417 5.12891 29.7578L8.32422 28.6211C9.48828 29.5781 10.7852 30.3359 12.1875 30.8594L12.8047 34.1914C12.851 34.4412 12.9721 34.6711 13.1522 34.8504C13.3322 35.0297 13.5625 35.15 13.8125 35.1953L13.918 35.2148C15.9692 35.584 18.0699 35.584 20.1211 35.2148L20.2266 35.1953C20.4766 35.15 20.7069 35.0297 20.8869 34.8504C21.0669 34.6711 21.1881 34.4412 21.2344 34.1914L21.8477 30.875C23.2617 30.3438 24.5664 29.5898 25.7383 28.6289L28.9102 29.7578C29.1494 29.8424 29.4086 29.8522 29.6535 29.7859C29.8984 29.7197 30.1174 29.5804 30.2812 29.3867L30.3516 29.3047C31.7109 27.6992 32.7539 25.8906 33.4609 23.9258L33.4961 23.8242C33.6641 23.3398 33.5195 22.7969 33.125 22.457ZM17.0195 24.4961C13.2266 24.4961 10.1523 21.4219 10.1523 17.6289C10.1523 13.8359 13.2266 10.7617 17.0195 10.7617C20.8125 10.7617 23.8867 13.8359 23.8867 17.6289C23.8867 21.4219 20.8125 24.4961 17.0195 24.4961Z" fill="black"/>
</svg>
